<svg width="24" height="24" viewBox="0 0 24 24" fill="none" xmlns="http://www.w3.org/2000/svg">
<path d="M9.47368 16.4211C9.47368 16.0738 9.18947 15.7896 8.8421 15.7896H5.05263C4.70527 15.7896 4.42105 16.0738 4.42105 16.4211V19.579H9.47368V16.4211Z" fill="#4ADE80"/>
<path d="M11.3684 13.2632C11.0211 13.2632 10.7368 13.5474 10.7368 13.8948V19.579H15.7895V13.8948C15.7895 13.5474 15.5053 13.2632 15.1579 13.2632H11.3684Z" fill="#4ADE80"/>
<path d="M22.1053 11.3684C22.1053 11.021 21.821 10.7368 21.4737 10.7368H17.6842C17.3368 10.7368 17.0526 11.021 17.0526 11.3684V19.5789H22.1053V11.3684Z" fill="#4ADE80"/>
<path d="M23.3684 20.8421H3.15789V0.631579C3.15789 0.282486 2.87511 0 2.52632 0C2.17753 0 1.89474 0.282486 1.89474 0.631579V1.89474H0.631579C0.282789 1.89474 0 2.17722 0 2.52632C0 2.87541 0.282789 3.15789 0.631579 3.15789H1.89474V5.68421H0.631579C0.282789 5.68421 0 5.9667 0 6.31579C0 6.66488 0.282789 6.94737 0.631579 6.94737H1.89474V9.47368H0.631579C0.282789 9.47368 0 9.75617 0 10.1053C0 10.4544 0.282789 10.7368 0.631579 10.7368H1.89474V13.2632H0.631579C0.282789 13.2632 0 13.5456 0 13.8947C0 14.2438 0.282789 14.5263 0.631579 14.5263H1.89474V17.0526H0.631579C0.282789 17.0526 0 17.3351 0 17.6842C0 18.0333 0.282789 18.3158 0.631579 18.3158H1.89474V20.8421H0.631579C0.282789 20.8421 0 21.1246 0 21.4737C0 21.8228 0.282789 22.1053 0.631579 22.1053H1.89474V23.3684C1.89474 23.7175 2.17753 24 2.52632 24C2.87511 24 3.15789 23.7175 3.15789 23.3684V22.1053H23.3684C23.7172 22.1053 24 21.8228 24 21.4737C24 21.1246 23.7172 20.8421 23.3684 20.8421Z" fill="#4ADE80"/>
<path d="M10.1053 11.3684C13.2394 11.3684 15.7895 8.81867 15.7895 5.68421C15.7895 2.54975 13.2394 0 10.1053 0C6.97111 0 4.42105 2.54975 4.42105 5.68421C4.42105 8.81867 6.97111 11.3684 10.1053 11.3684ZM10.1053 6.31579C9.06044 6.31579 8.21052 5.46587 8.21052 4.42105C8.21052 3.59877 8.7401 2.90425 9.47368 2.6427V2.52632C9.47368 2.17722 9.75647 1.89474 10.1053 1.89474C10.4541 1.89474 10.7368 2.17722 10.7368 2.52632V2.6427C11.4704 2.90425 12 3.59877 12 4.42105C12 4.77014 11.7172 5.05263 11.3684 5.05263C11.0196 5.05263 10.7368 4.77014 10.7368 4.42105C10.7368 4.07257 10.4534 3.78947 10.1053 3.78947C9.75709 3.78947 9.47368 4.07257 9.47368 4.42105C9.47368 4.76953 9.75709 5.05263 10.1053 5.05263C11.1501 5.05263 12 5.90255 12 6.94737C12 7.76965 11.4704 8.46417 10.7368 8.72572V8.8421C10.7368 9.1912 10.4541 9.47368 10.1053 9.47368C9.75647 9.47368 9.47368 9.1912 9.47368 8.8421V8.72569C8.7401 8.46414 8.21052 7.76965 8.21052 6.94737C8.21052 6.59828 8.49331 6.31579 8.8421 6.31579C9.19089 6.31579 9.47368 6.59828 9.47368 6.94737C9.47368 7.29585 9.75709 7.57895 10.1053 7.57895C10.4534 7.57895 10.7368 7.29585 10.7368 6.94737C10.7368 6.59889 10.4534 6.31579 10.1053 6.31579Z" fill="#4ADE80"/>
</svg>
